<svg width="34" height="33" viewBox="0 0 34 33" fill="none" xmlns="http://www.w3.org/2000/svg">
<path d="M25.5001 6.28003C24.4601 6.28003 23.6101 7.13003 23.6101 8.17003C23.6101 9.21003 24.4601 10.06 25.5001 10.06C26.5401 10.06 27.3901 9.21003 27.3901 8.17003C27.3901 7.12003 26.5501 6.28003 25.5001 6.28003Z" fill="#A46232"/>
<path d="M17.1002 8.70001C12.7202 8.70001 9.17017 12.26 9.17017 16.63C9.17017 21.01 12.7302 24.56 17.1002 24.56C21.4702 24.56 25.0302 21 25.0302 16.63C25.0402 12.26 21.4802 8.70001 17.1002 8.70001ZM17.1002 21.72C14.3002 21.72 12.0202 19.44 12.0202 16.64C12.0202 13.84 14.3002 11.56 17.1002 11.56C19.9002 11.56 22.1802 13.84 22.1802 16.64C22.1802 19.44 19.9102 21.72 17.1002 21.72Z" fill="#A46232"/>
<path d="M23.4001 32.74H10.5401C5.20011 32.74 0.860107 28.4 0.860107 23.06V10.2C0.860107 4.86002 5.20011 0.52002 10.5401 0.52002H23.4001C28.7401 0.52002 33.0801 4.86002 33.0801 10.2V23.06C33.0801 28.4 28.7401 32.74 23.4001 32.74ZM10.5401 3.56002C6.87011 3.56002 3.89011 6.54002 3.89011 10.21V23.07C3.89011 26.74 6.87011 29.72 10.5401 29.72H23.4001C27.0701 29.72 30.0501 26.74 30.0501 23.07V10.2C30.0501 6.53002 27.0701 3.55002 23.4001 3.55002H10.5401V3.56002Z" fill="#A46232"/>
</svg>
