<svg width="36" height="36" viewBox="0 0 36 36" fill="none" xmlns="http://www.w3.org/2000/svg">
<g clip-path="url(#clip0_48_1310)">
<path d="M0 35.38L2.54 25.92C0.491554 22.2348 -0.159258 17.9346 0.706989 13.8083C1.57324 9.68204 3.89844 6.00655 7.25591 3.45629C10.6134 0.906029 14.7779 -0.34793 18.9853 -0.0754854C23.1927 0.196959 27.1608 1.97753 30.1613 4.93949C33.1619 7.90146 34.9936 11.8461 35.3205 16.0497C35.6474 20.2532 34.4474 24.4336 31.9408 27.8238C29.4342 31.214 25.7891 33.5866 21.6744 34.5061C17.5597 35.4257 13.2513 34.8306 9.54 32.83L0 35.38ZM10 29.29L10.6 29.64C13.58 31.4124 17.1054 32.0333 20.5116 31.3856C23.9177 30.7379 26.9692 28.8663 29.0907 26.1239C31.2121 23.3814 32.2568 19.9576 32.0279 16.4979C31.799 13.0383 30.3122 9.78195 27.8479 7.34294C25.3836 4.90394 22.1121 3.45083 18.6502 3.2576C15.1884 3.06438 11.7755 4.1444 9.05511 6.29402C6.33469 8.44363 4.49475 11.5143 3.88223 14.927C3.26971 18.3396 3.92694 21.8585 5.73 24.82L6.1 25.43L4.67 30.71L10 29.29Z" fill="#A46232"/>
<path fill-rule="evenodd" clip-rule="evenodd" d="M24.3201 19.91C23.9742 19.631 23.5692 19.4347 23.136 19.3359C22.7028 19.2371 22.2527 19.2385 21.8201 19.34C21.1701 19.61 20.7501 20.63 20.3301 21.14C20.2415 21.2623 20.1114 21.348 19.9641 21.3812C19.8168 21.4143 19.6625 21.3926 19.5301 21.32C17.1504 20.388 15.1558 18.6788 13.8701 16.47C13.7604 16.3322 13.7085 16.1572 13.7253 15.9818C13.7421 15.8065 13.8263 15.6445 13.9601 15.53C14.4285 15.0663 14.7725 14.4919 14.9601 13.86C15.0018 13.163 14.8421 12.4688 14.5001 11.86C14.2357 11.0066 13.7326 10.2466 13.0501 9.67001C12.6981 9.5117 12.3078 9.45861 11.9263 9.51717C11.5448 9.57573 11.1884 9.74342 10.9001 10C10.3996 10.4319 10.0023 10.9705 9.73749 11.5762C9.4727 12.1819 9.34715 12.8393 9.37009 13.5C9.37164 13.871 9.41866 14.2404 9.5101 14.6C9.7423 15.4639 10.0994 16.2893 10.5701 17.05C10.9097 17.6327 11.2802 18.1969 11.6801 18.74C12.9796 20.524 14.6132 22.0387 16.4901 23.2C17.4319 23.7902 18.4386 24.27 19.4901 24.63C20.5824 25.1252 21.7884 25.3152 22.9801 25.18C23.6591 25.0772 24.3024 24.8092 24.8534 24.3994C25.4044 23.9896 25.8463 23.4507 26.1401 22.83C26.3127 22.4551 26.3651 22.0359 26.2901 21.63C26.1101 20.8 25.0001 20.31 24.3201 19.91Z" fill="#A46232"/>
</g>
<defs>
<clipPath id="clip0_48_1310">
<rect width="35.29" height="35.38" fill="white"/>
</clipPath>
</defs>
</svg>
